<svg xmlns="http://www.w3.org/2000/svg" viewBox="0 0 25 25">
  
<g transform="matrix(1.7857142857142858,0,0,1.7857142857142858,0,0)"><g>
    <path d="M2.5,8.5h9a1,1,0,0,1,1,1v4a0,0,0,0,1,0,0H1.5a0,0,0,0,1,0,0v-4A1,1,0,0,1,2.5,8.5Z" style="fill: none;stroke: #000000;stroke-linecap: round;stroke-linejoin: round"></path>
    <path d="M1.5,9.5a1,1,0,0,1-1-1v-2a1,1,0,0,1,1-1h11a1,1,0,0,1,1,1v2a1,1,0,0,1-1,1" style="fill: none;stroke: #000000;stroke-linecap: round;stroke-linejoin: round"></path>
    <rect x="3" y="0.5" width="8" height="5" style="fill: none;stroke: #000000;stroke-linecap: round;stroke-linejoin: round"></rect>
    <line x1="4" y1="11" x2="10" y2="11" style="fill: none;stroke: #000000;stroke-linecap: round;stroke-linejoin: round"></line>
  </g></g></svg>