<svg xmlns="http://www.w3.org/2000/svg" viewBox="0 0 25 25">
  
<g transform="matrix(1.7857142857142858,0,0,1.7857142857142858,0,0)"><g>
    <path d="M8.5.5h-7a1,1,0,0,0-1,1v11a1,1,0,0,0,1,1h11a1,1,0,0,0,1-1v-7Z" style="fill: none;stroke: #000000;stroke-linecap: round;stroke-linejoin: round"></path>
    <path d="M8.5,5V.5l5,5H9A.5.5,0,0,1,8.5,5Z" style="fill: none;stroke: #000000;stroke-linecap: round;stroke-linejoin: round"></path>
    <line x1="4.5" y1="4.5" x2="4.5" y2="3" style="fill: none;stroke: #000000;stroke-linecap: round;stroke-linejoin: round"></line>
    <path d="M3,8.5c0,.75.67,1,1.5,1S6,9.5,6,8.5C6,7,3,7,3,5.5c0-1,.67-1,1.5-1S6,4.88,6,5.5" style="fill: none;stroke: #000000;stroke-linecap: round;stroke-linejoin: round"></path>
    <line x1="4.5" y1="9.5" x2="4.5" y2="11" style="fill: none;stroke: #000000;stroke-linecap: round;stroke-linejoin: round"></line>
    <line x1="8.5" y1="9.5" x2="11.5" y2="9.5" style="fill: none;stroke: #000000;stroke-linecap: round;stroke-linejoin: round"></line>
  </g></g></svg>